<svg width="203" height="23" viewBox="0 0 203 23" fill="none" xmlns="http://www.w3.org/2000/svg">
<path d="M0.255859 22V0.642578H8.53223C10.6318 0.662109 12.209 1.18945 13.2637 2.22461C14.3281 3.26953 14.8604 4.65137 14.8604 6.37012C14.8799 7.24902 14.6699 8.08887 14.2305 8.88965C14.0059 9.27051 13.6836 9.63184 13.2637 9.97363C12.8438 10.335 12.3262 10.6621 11.7109 10.9551V11.0137C12.873 11.3164 13.752 11.9268 14.3477 12.8447C14.9043 13.792 15.1826 14.8223 15.1826 15.9355C15.1631 17.7812 14.5869 19.2412 13.4541 20.3154C12.3311 21.4385 10.9297 22 9.25 22H0.255859ZM8.47363 12.5225H3.49316V18.9385H8.47363C9.6748 18.9189 10.5537 18.5918 11.1104 17.957C11.667 17.332 11.9453 16.5898 11.9453 15.7305C11.9453 14.8516 11.667 14.0996 11.1104 13.4746C10.5537 12.8594 9.6748 12.542 8.47363 12.5225ZM8.16602 3.52832H3.49316V9.63672H8.16602C9.34766 9.63672 10.2168 9.3291 10.7734 8.71387C11.3398 8.14746 11.623 7.43457 11.623 6.5752C11.623 5.71582 11.3398 4.98828 10.7734 4.39258C10.2168 3.83594 9.34766 3.54785 8.16602 3.52832ZM30.0801 15.5547H20.6025C20.6025 16.7754 20.9541 17.7031 21.6572 18.3379C22.3115 18.9824 23.1709 19.3047 24.2354 19.3047C25.4756 19.3047 26.584 18.8115 27.5605 17.8252L29.7725 19.7148C28.2197 21.375 26.3936 22.1953 24.2939 22.1758C23.4932 22.1758 22.7119 22.0586 21.9502 21.8242C21.5693 21.6973 21.1982 21.5264 20.8369 21.3115C20.4561 21.126 20.0996 20.8965 19.7676 20.623C19.123 20.0566 18.6006 19.2656 18.2002 18.25C17.7607 17.2734 17.541 16.0039 17.541 14.4414C17.541 12.9375 17.7314 11.6875 18.1123 10.6914C18.4932 9.67578 18.9814 8.875 19.5771 8.28906C20.1826 7.69336 20.8613 7.26367 21.6133 7C22.3555 6.73633 23.0879 6.60449 23.8105 6.60449C25.5488 6.62402 27.0186 7.19531 28.2197 8.31836C29.4404 9.46094 30.0605 11.0332 30.0801 13.0352V15.5547ZM20.6025 13.0352H27.0186C26.9795 11.8535 26.6621 10.96 26.0664 10.3545C25.4805 9.77832 24.7285 9.49023 23.8105 9.49023C22.8926 9.49023 22.1406 9.77832 21.5547 10.3545C20.9785 10.96 20.6611 11.8535 20.6025 13.0352ZM41.2715 22V20.6523H41.2129C40.9297 21.1699 40.4902 21.5508 39.8945 21.7949C39.3086 22.0488 38.498 22.1758 37.4629 22.1758C35.7637 22.1562 34.4551 21.707 33.5371 20.8281C32.5703 19.9688 32.0869 18.8701 32.0869 17.5322C32.0869 16.2529 32.5068 15.1934 33.3467 14.3535C34.1865 13.4941 35.417 13.0547 37.0381 13.0352H41.2715V11.4385C41.291 10.1006 40.251 9.45117 38.1514 9.49023C37.3896 9.49023 36.7891 9.56836 36.3496 9.72461C35.8906 9.91016 35.5293 10.2227 35.2656 10.6621L32.8633 8.83105C34.0254 7.30762 35.7393 6.56543 38.0049 6.60449C39.9189 6.58496 41.4473 6.94629 42.5898 7.68848C43.7324 8.4502 44.3135 9.75879 44.333 11.6143V22H41.2715ZM41.2715 16.6533V15.5547H37.6094C35.832 15.5938 34.9531 16.2041 34.9727 17.3857C34.9727 17.9033 35.2021 18.3428 35.6611 18.7041C36.1006 19.1045 36.8281 19.3047 37.8438 19.3047C39.123 19.3242 40.0264 19.1729 40.5537 18.8506C41.0322 18.5283 41.2715 17.7959 41.2715 16.6533ZM48.2881 16.9023V6.79492H51.3496V15.8477C51.3496 16.873 51.6377 17.6738 52.2139 18.25C52.7803 18.8262 53.5029 19.1143 54.3818 19.1143C55.2607 19.1143 55.9785 18.8262 56.5352 18.25C57.1016 17.6738 57.3848 16.873 57.3848 15.8477V6.79492H60.4463V22H57.3848V20.374H57.3262C56.3203 21.5752 55.0068 22.1758 53.3857 22.1758C52.126 22.1562 50.9883 21.6973 49.9727 20.7988C48.8691 19.9199 48.3076 18.6211 48.2881 16.9023ZM64.5771 6.79492V2.16602H67.6387V6.79492H69.8652V9.12402H67.6387V17.9863C67.6191 18.7578 67.9805 19.1338 68.7227 19.1143H69.8652V22H68.2686C67.1943 22 66.3154 21.668 65.6318 21.0039C64.9287 20.3691 64.5771 19.4512 64.5771 18.25V9.12402H63.0537V6.79492H64.5771ZM72.8389 22V6.79492H75.9004V22H72.8389ZM72.8389 3.7041V0.642578H75.9004V3.7041H72.8389ZM80.4414 22V9.12402H78.9033V6.79492H80.4414V4.78809C80.4414 3.34277 80.8418 2.27832 81.6426 1.59473C82.4238 0.959961 83.4053 0.642578 84.5869 0.642578H86.5645V3.52832H84.8213C83.9033 3.49902 83.4639 3.91895 83.5029 4.78809V6.79492H86.5645V9.12402H83.5029V22H80.4414ZM88.3076 16.9023V6.79492H91.3691V15.8477C91.3691 16.873 91.6572 17.6738 92.2334 18.25C92.7998 18.8262 93.5225 19.1143 94.4014 19.1143C95.2803 19.1143 95.998 18.8262 96.5547 18.25C97.1211 17.6738 97.4043 16.873 97.4043 15.8477V6.79492H100.466V22H97.4043V20.374H97.3457C96.3398 21.5752 95.0264 22.1758 93.4053 22.1758C92.1455 22.1562 91.0078 21.6973 89.9922 20.7988C88.8887 19.9199 88.3271 18.6211 88.3076 16.9023ZM104.421 18.3086V0.642578H107.482V18.0742C107.482 18.7676 107.863 19.1143 108.625 19.1143H109.68V22H108.317C107.204 22 106.286 21.7217 105.563 21.165C104.802 20.5986 104.421 19.6465 104.421 18.3086ZM112.434 22V0.642578H115.48L121.604 14.5586L127.609 0.642578H130.671V22H127.434V8.68457H127.36L122.893 18.9385H120.197L115.729 8.68457H115.671V22H112.434ZM134.978 22V6.79492H138.039V22H134.978ZM134.978 3.7041V0.642578H138.039V3.7041H134.978ZM142.097 22V6.79492H145.158V8.40625H145.217C146.223 7.20508 147.541 6.60449 149.172 6.60449C150.432 6.60449 151.584 7.04883 152.629 7.9375C153.664 8.83594 154.206 10.1543 154.255 11.8926V22H151.193V12.9473C151.193 11.8828 150.91 11.0723 150.344 10.5156C149.787 9.94922 149.069 9.66602 148.19 9.66602C147.312 9.66602 146.589 9.94922 146.022 10.5156C145.446 11.0723 145.158 11.8828 145.158 12.9473V22H142.097ZM167.307 20.4033C166.301 21.5459 164.987 22.1367 163.366 22.1758C162.448 22.1562 161.662 21.9658 161.008 21.6045C160.324 21.2529 159.753 20.7842 159.294 20.1982C158.874 19.7197 158.596 19.0703 158.459 18.25C158.293 17.4688 158.21 16.1797 158.21 14.3828C158.21 12.5566 158.293 11.2578 158.459 10.4863C158.596 9.70508 158.874 9.0752 159.294 8.59668C160.153 7.31738 161.511 6.65332 163.366 6.60449C164.147 6.60449 164.87 6.76562 165.534 7.08789C166.149 7.42969 166.74 7.86914 167.307 8.40625V0.642578H170.368V22H167.307V20.4033ZM164.304 9.66602C163.581 9.66602 163.029 9.78809 162.648 10.0322C162.229 10.2959 161.921 10.6572 161.726 11.1162C161.54 11.5752 161.418 12.0732 161.359 12.6104C161.301 13.1865 161.271 13.7773 161.271 14.3828C161.271 14.959 161.301 15.5205 161.359 16.0674C161.418 16.6436 161.54 17.1611 161.726 17.6201C161.921 18.0596 162.229 18.4209 162.648 18.7041C163.029 18.9775 163.581 19.1143 164.304 19.1143C165.026 19.1143 165.598 18.9678 166.018 18.6748C166.438 18.3916 166.726 18.0205 166.882 17.5615C167.077 17.1025 167.209 16.5898 167.277 16.0234C167.297 15.4668 167.307 14.9199 167.307 14.3828C167.307 13.7969 167.297 13.2354 167.277 12.6982C167.209 12.1611 167.077 11.6631 166.882 11.2041C166.726 10.7451 166.438 10.374 166.018 10.0908C165.598 9.80762 165.026 9.66602 164.304 9.66602Z" fill="black"/>
<path d="M185.061 14.3535H191.301L188.21 5.02246H188.151L185.061 14.3535ZM193.879 22L192.224 17.2246H184.123L182.482 22H179.055L186.818 0.642578H189.528L197.292 22H193.879ZM199.592 22V0.642578H202.829V22H199.592Z" fill="#FF3300"/>
</svg>
