<svg width="238" height="45" viewBox="0 0 238 45" fill="none" xmlns="http://www.w3.org/2000/svg">
<path d="M0 0H238V45H0V0Z" fill="#FFFDFD"/>
<path d="M7.33105 35V12.9307H15.0508C18.0378 12.9508 20.278 14.1921 21.7715 16.6543C22.3063 17.4818 22.6444 18.3496 22.7856 19.2578C22.8966 20.166 22.9521 21.7352 22.9521 23.9653C22.9521 26.3368 22.8664 27.9917 22.6948 28.9302C22.6141 29.4045 22.493 29.8283 22.3315 30.2017C22.16 30.5649 21.9531 30.9434 21.7109 31.3369C21.0651 32.3763 20.167 33.234 19.0166 33.9102C17.8763 34.6367 16.4787 35 14.8237 35H7.33105ZM10.6763 16.0942V31.8364H14.6724C16.5493 31.8364 17.9116 31.1956 18.7593 29.9141C19.1326 29.4398 19.3698 28.8394 19.4707 28.1128C19.5615 27.3963 19.6069 26.0542 19.6069 24.0864C19.6069 22.1691 19.5615 20.7967 19.4707 19.9692C19.3496 19.1418 19.062 18.4707 18.6079 17.9561C17.6795 16.6745 16.3677 16.0539 14.6724 16.0942H10.6763Z" fill="black"/>
<path d="M26.6606 35V19.2881H29.8242V35H26.6606ZM26.6606 16.0942V12.9307H29.8242V16.0942H26.6606Z" fill="black"/>
<path d="M42.8569 33.3501C41.8175 34.5308 40.4653 35.1413 38.8003 35.1816C37.7811 35.1615 36.9334 34.9445 36.2573 34.5308C35.5509 34.1372 35.0111 33.7134 34.6377 33.2593C34.224 32.7446 33.9263 32.1139 33.7446 31.3672C33.5529 30.6305 33.457 29.2279 33.457 27.1592C33.457 25.0501 33.5529 23.6222 33.7446 22.8755C33.9263 22.1388 34.224 21.5182 34.6377 21.0137C35.0111 20.5192 35.5509 20.0752 36.2573 19.6816C36.9334 19.3083 37.7811 19.1115 38.8003 19.0913C40.3644 19.0913 41.7166 19.7119 42.8569 20.9531V19.2881H46.0205V34.6216C45.9801 36.9829 45.299 38.7186 43.9771 39.8286C42.645 40.9689 41.0506 41.5391 39.1938 41.5391C37.0646 41.4987 35.2482 40.6208 33.7446 38.9053L36.1968 36.9526C36.6004 37.326 37.0646 37.6439 37.5894 37.9062C38.1242 38.1989 38.6792 38.3553 39.2544 38.3755C40.3341 38.3755 41.202 38.0778 41.8579 37.4824C42.5037 36.877 42.8368 36.0394 42.8569 34.9697V33.3501ZM36.6206 27.1592C36.6206 28.36 36.661 29.1875 36.7417 29.6416C36.8123 30.1159 36.9788 30.5094 37.2412 30.8223C37.4531 31.1048 37.776 31.3621 38.21 31.5942C38.6237 31.8768 39.1383 32.0181 39.7539 32.0181C40.3695 32.0181 40.8841 31.8768 41.2979 31.5942C41.7116 31.3621 42.0244 31.1048 42.2363 30.8223C42.4987 30.5094 42.6753 30.1159 42.7661 29.6416C42.8267 29.1875 42.8569 28.36 42.8569 27.1592C42.8569 25.9382 42.8267 25.0905 42.7661 24.6162C42.6753 24.1419 42.4987 23.7585 42.2363 23.4658C42.0244 23.1833 41.7116 22.9058 41.2979 22.6333C40.8841 22.4012 40.3695 22.2751 39.7539 22.2549C39.1383 22.2751 38.6237 22.4012 38.21 22.6333C37.776 22.9058 37.4531 23.1833 37.2412 23.4658C36.9788 23.7585 36.8123 24.1419 36.7417 24.6162C36.661 25.0905 36.6206 25.9382 36.6206 27.1592Z" fill="black"/>
<path d="M50.2134 35V19.2881H53.377V35H50.2134ZM50.2134 16.0942V12.9307H53.377V16.0942H50.2134Z" fill="black"/>
<path d="M57.7515 19.2881V14.5049H60.915V19.2881H63.2158V21.6948H60.915V30.8525C60.8949 31.6497 61.2682 32.0382 62.0352 32.0181H63.2158V35H61.5659C60.4559 35 59.5477 34.6569 58.8413 33.9707C58.1147 33.3148 57.7515 32.3662 57.7515 31.125V21.6948H56.1772V19.2881H57.7515Z" fill="black"/>
<path d="M74.4473 35V33.6074H74.3867C74.0941 34.1423 73.64 34.5358 73.0244 34.7881C72.4189 35.0505 71.5814 35.1816 70.5117 35.1816C68.7559 35.1615 67.4036 34.6973 66.4551 33.7891C65.4561 32.901 64.9565 31.7658 64.9565 30.3833C64.9565 29.0614 65.3905 27.9665 66.2583 27.0986C67.1261 26.2106 68.3976 25.7565 70.0728 25.7363H74.4473V24.0864C74.4674 22.7039 73.3927 22.0329 71.2231 22.0732C70.436 22.0732 69.8154 22.154 69.3613 22.3154C68.887 22.5072 68.5137 22.8301 68.2412 23.2842L65.7588 21.3921C66.9596 19.8179 68.7306 19.0509 71.0718 19.0913C73.0496 19.0711 74.6289 19.4445 75.8096 20.2114C76.9902 20.9985 77.5907 22.3507 77.6108 24.2681V35H74.4473ZM74.4473 29.4751V28.3398H70.6631C68.8265 28.3802 67.9183 29.0109 67.9385 30.2319C67.9385 30.7668 68.1756 31.2209 68.6499 31.5942C69.104 32.008 69.8558 32.2148 70.9053 32.2148C72.2272 32.235 73.1606 32.0786 73.7056 31.7456C74.2 31.4126 74.4473 30.6558 74.4473 29.4751Z" fill="black"/>
<path d="M81.6978 31.1855V12.9307H84.8613V30.9434C84.8613 31.6598 85.2549 32.0181 86.042 32.0181H87.1318V35H85.7241C84.5737 35 83.6252 34.7124 82.8784 34.1372C82.0913 33.5519 81.6978 32.568 81.6978 31.1855Z" fill="black"/>
<path d="M89.9775 35V12.9307H93.126L99.4531 27.3105L105.659 12.9307H108.823V35H105.478V21.2407H105.402L100.785 31.8364H98L93.3833 21.2407H93.3228V35H89.9775Z" fill="black"/>
<path d="M113.273 35V19.2881H116.437V35H113.273ZM113.273 16.0942V12.9307H116.437V16.0942H113.273Z" fill="black"/>
<path d="M120.629 35V19.2881H123.793V20.9531H123.854C124.893 19.7119 126.255 19.0913 127.94 19.0913C129.242 19.0913 130.433 19.5505 131.513 20.4688C132.582 21.3971 133.142 22.7594 133.193 24.5557V35H130.029V25.6455C130.029 24.5456 129.737 23.708 129.151 23.1328C128.576 22.5475 127.834 22.2549 126.926 22.2549C126.018 22.2549 125.271 22.5475 124.686 23.1328C124.091 23.708 123.793 24.5456 123.793 25.6455V35H120.629Z" fill="black"/>
<path d="M146.68 33.3501C145.64 34.5308 144.283 35.1413 142.608 35.1816C141.659 35.1615 140.847 34.9647 140.171 34.5913C139.465 34.228 138.874 33.7437 138.4 33.1382C137.966 32.6437 137.678 31.9727 137.537 31.125C137.366 30.3177 137.28 28.9857 137.28 27.1289C137.28 25.2419 137.366 23.8997 137.537 23.1025C137.678 22.2952 137.966 21.6444 138.4 21.1499C139.288 19.828 140.691 19.1418 142.608 19.0913C143.415 19.0913 144.162 19.2578 144.848 19.5908C145.484 19.944 146.094 20.3981 146.68 20.9531V12.9307H149.843V35H146.68V33.3501ZM143.577 22.2549C142.83 22.2549 142.26 22.381 141.866 22.6333C141.432 22.9058 141.114 23.2791 140.913 23.7534C140.721 24.2277 140.595 24.7424 140.534 25.2974C140.474 25.8927 140.443 26.5033 140.443 27.1289C140.443 27.7243 140.474 28.3045 140.534 28.8696C140.595 29.465 140.721 29.9998 140.913 30.4741C141.114 30.9282 141.432 31.3016 141.866 31.5942C142.26 31.8768 142.83 32.0181 143.577 32.0181C144.323 32.0181 144.914 31.8667 145.348 31.564C145.782 31.2713 146.079 30.8879 146.241 30.4136C146.443 29.9393 146.579 29.4095 146.649 28.8242C146.67 28.249 146.68 27.6839 146.68 27.1289C146.68 26.5234 146.67 25.9432 146.649 25.3882C146.579 24.8332 146.443 24.3185 146.241 23.8442C146.079 23.37 145.782 22.9865 145.348 22.6938C144.914 22.4012 144.323 22.2549 143.577 22.2549Z" fill="black"/>
<path d="M165.025 27.0986H171.474L168.28 17.4565H168.219L165.025 27.0986ZM174.138 35L172.427 30.0654H164.057L162.361 35H158.819L166.842 12.9307H169.642L177.665 35H174.138Z" fill="#FF3300"/>
<path d="M180.041 35V12.9307H183.386V35H180.041Z" fill="#FF3300"/>
</svg>
